<svg width="206" height="8" viewBox="0 0 206 8" fill="none" xmlns="http://www.w3.org/2000/svg">
<path d="M11.1585 4.2546C1.62603 3.26341 3.17312 3.87963 3.37554 3.51162C2.69673 3.33834 2.01684 3.2182 0.94938 2.98386C1.73535 2.68087 2.22578 2.53136 2.81471 2.33068C2.71835 2.27557 2.52564 2.16533 2.43036 2.05707C2.52888 2.00591 2.72591 1.90359 2.82335 1.90557C5.74426 2.07127 8.67814 1.5993 11.599 1.765C14.6174 1.93268 17.6368 2.04722 20.6606 1.9492C23.0997 1.8393 25.4393 1.8337 27.8762 1.83008C28.6557 1.84593 29.2339 2.17665 30.1162 1.92878C30.8025 1.73009 31.8711 1.91129 32.748 1.92912C33.7224 1.94892 34.6967 1.96873 35.6711 1.98854C36.548 2.00636 37.4249 2.02419 38.3018 2.04201C39.1788 2.05984 40.0557 2.07767 40.9326 2.09549C41.03 2.09747 41.0311 2.04434 41.3267 1.89086C40.4508 1.8199 39.7699 1.75289 39.0889 1.68589C39.09 1.63275 39.0911 1.57961 39.0921 1.52647C39.9691 1.5443 40.9445 1.51097 41.8214 1.5288C42.7958 1.54861 43.7701 1.56841 44.7445 1.58822C44.9394 1.59218 45.1342 1.59614 45.2306 1.65126C46.1898 2.415 47.2638 2.33051 48.6354 1.98627C49.1259 1.83676 49.9021 2.01202 50.4867 2.02391C58.7688 2.19226 67.1482 2.3626 75.4303 2.53096C76.3072 2.54879 77.3736 2.83627 78.1639 2.32073C78.1639 2.32073 78.3587 2.32469 78.4562 2.32667C79.226 2.82076 80.0195 2.1458 80.6972 2.37222C81.4702 2.7069 81.9585 2.66367 82.7434 2.41382C82.9404 2.3115 83.5218 2.4828 83.9094 2.597C84.3933 2.76632 84.3901 2.92574 83.8996 3.07526C83.996 3.13038 84.0913 3.23863 84.1887 3.24061C84.3836 3.24457 84.5784 3.24853 84.6759 3.25051C84.874 3.09506 84.8783 2.88251 85.0753 2.78019C85.3709 2.62672 85.7639 2.47522 86.1536 2.48314C86.7382 2.49503 87.5123 2.77657 88.0017 2.68019C88.688 2.4815 89.1741 2.54454 89.8529 2.71783C90.338 2.83401 91.0254 2.58218 91.7075 2.59604C94.1434 2.64556 96.6767 2.69706 99.1126 2.74657C99.4006 2.96507 99.5922 3.12845 99.7827 3.34497C100.078 3.19149 100.471 3.04 101.061 2.78619C102.136 2.64856 103.879 3.2156 104.971 2.28089C105.259 2.49939 105.548 2.66475 105.837 2.83011C107.987 2.55485 109.937 2.54132 111.975 2.95489C114.13 2.46708 116.263 2.9889 118.411 2.81992C118.406 3.08561 118.205 3.40048 118.302 3.40246C119.078 3.57772 118.989 3.15063 119.19 2.8889C120.067 2.90673 121.041 2.92653 122.015 2.94634C122.117 2.73577 122.315 2.58031 122.416 2.42288C122.512 2.478 122.707 2.48196 122.804 2.53708C123.282 2.97209 124.156 3.14933 124.841 3.00378C126.409 2.61036 128.061 2.85659 129.718 2.83712C131.083 2.81171 132.544 2.89456 133.912 2.70974C133.036 2.63877 132.258 2.56979 131.382 2.49882C133.333 2.43216 135.391 1.88923 136.833 2.87543C137.81 2.78896 138.689 2.70052 139.468 2.71636C142.002 2.76786 144.535 2.81936 147.068 2.87085C147.269 2.60912 147.369 2.45169 147.472 2.18797C147.854 2.56787 148.239 2.84148 148.623 3.1151C148.825 2.74709 149.224 2.3299 149.998 2.61144C150.771 2.94612 151.262 2.74347 152.044 2.65303C153.411 2.52135 154.871 2.65734 156.238 2.52565C155.557 2.45865 154.876 2.39164 154.195 2.32464C154.295 2.22034 154.394 2.11605 154.492 2.11803C156.44 2.15765 158.39 2.14412 160.338 2.23687C161.798 2.31972 163.156 2.66628 164.62 2.58972C164.815 2.59368 165.108 2.54648 165.306 2.39102C164.625 2.32402 163.847 2.25503 163.165 2.24117C165.408 2.18045 167.559 1.85205 169.79 2.37586C170.76 2.60822 172.03 2.47455 173.203 2.3389C172.717 2.27586 172.23 2.21282 171.745 2.09664C171.844 2.04548 171.945 1.88805 171.945 1.88805C172.822 1.90587 173.698 1.9237 174.575 1.94152C175.05 2.58909 175.751 1.64646 176.522 2.08741C177.004 2.36301 177.991 1.74515 178.956 2.24321C179.437 2.5188 180.806 2.33398 181.785 2.14124C181.104 2.07423 180.423 2.00723 179.742 1.94022C179.939 1.83791 180.038 1.73361 180.136 1.73559C181.5 1.76332 182.766 1.78907 184.131 1.8168C186.762 1.81714 189.296 1.86864 191.834 1.65444C193.202 1.52276 194.566 1.55049 195.835 1.46996C197.005 1.44059 198.082 1.19668 198.586 0.409502C199.073 0.419406 200.049 0.332935 200.145 0.441193C200.524 0.980502 201.692 1.05741 201.975 1.48846C202.259 1.91952 202.647 2.03371 203.227 2.25815C204.486 2.65587 204.763 3.40575 204.066 4.13583C204.451 4.35631 204.739 4.57481 205.126 4.74214C205.124 4.84842 205.122 4.9547 205.023 5.00586C204.036 5.62371 202.861 5.86563 201.3 5.94022C198.666 6.04616 196.124 6.41977 193.494 6.31315C191.925 6.81285 190.275 6.46035 188.616 6.53295C187.348 6.56034 186.078 6.69401 184.811 6.7214C183.543 6.74879 182.183 6.5085 181.107 6.69927C179.542 6.98641 177.984 6.90158 176.523 6.81873C174.577 6.67284 172.813 7.11543 170.865 7.02268C168.917 6.98307 166.875 6.72892 165.018 6.95698C161.404 7.30881 157.808 6.81041 154.295 7.0048C149.904 7.2345 145.526 6.82654 141.232 7.05822C135.475 7.36647 129.635 6.9288 123.884 6.91822C123.202 6.90435 122.423 6.8885 121.741 6.87464C121.156 6.86276 120.476 6.74261 120.079 7.10666C119.796 6.62247 119.103 7.13999 118.523 6.91555C118.234 6.7502 117.351 7.0512 116.669 7.03734C115.985 7.07661 115.207 7.00763 114.525 6.99376C113.94 6.98188 113.258 6.96801 112.674 6.95613C111.992 6.94227 111.212 6.92642 110.53 6.91255C109.848 6.89869 109.069 6.88284 108.386 6.86898C107.802 6.8571 107.12 6.84323 106.535 6.83135C105.853 6.81748 105.073 6.85478 104.392 6.78777C103.516 6.71681 102.733 6.86037 101.863 6.52371C101.476 6.35638 100.494 6.70854 99.7147 6.6927C97.4726 6.70028 95.3301 6.60357 93.0891 6.55801C92.3096 6.54217 91.3395 6.30981 90.6478 6.77419C90.1541 7.08312 89.8791 6.22695 89.1873 6.69134C88.9892 6.84679 87.82 6.82303 87.7247 6.71477C87.0545 6.11638 86.2567 7.00389 85.7771 6.62201C85.1058 6.07676 84.6057 6.70453 84.0221 6.6395C83.7298 6.63356 83.3412 6.5725 83.0499 6.51342C82.4664 6.4484 81.5938 6.21802 81.3968 6.32033C80.705 6.78471 79.8378 6.28864 79.054 6.48535C78.2702 6.68206 77.1042 6.49887 76.2273 6.48105C58.8837 6.12849 41.5401 5.77593 24.1966 5.42336C21.8581 5.37583 19.5261 5.00946 17.2732 5.54843C16.1148 4.99328 14.9337 5.55403 13.7644 5.53026C10.064 5.34872 6.3604 5.32659 2.36555 5.24539C2.46731 5.03481 2.57122 4.71796 2.7661 4.72192C4.61953 4.65328 6.4762 4.42521 8.42385 4.51797C12.3202 4.65033 16.2187 4.67642 20.1161 4.75565C20.2136 4.75763 20.4106 4.65531 20.5091 4.60415C20.3153 4.54705 20.1216 4.48996 20.0252 4.43484C19.5391 4.3718 19.1558 4.04504 18.5637 4.40513C18.4641 4.50943 17.8816 4.39127 17.4919 4.38334C12.3256 4.38464 7.16149 4.27967 11.1585 4.2546C20.416 4.38962 20.4149 4.44276 20.4139 4.4959C21.1912 4.61802 22.0649 4.79526 22.8422 4.91738C23.3283 4.98042 26.0576 4.98275 26.5447 4.99265C26.9345 5.00057 27.4195 5.11675 27.5191 5.01246C28.2109 4.54807 29.1809 4.78043 29.9604 4.79628C42.5296 5.05179 55.0988 5.3073 67.668 5.5628C68.4475 5.57865 69.2313 5.38194 69.9047 5.82092C70.0011 5.87604 70.4872 5.93907 70.5857 5.88792C71.3749 5.42551 72.4413 5.713 73.3193 5.67768C75.1728 5.60904 77.1161 5.91434 78.976 5.52687C79.4653 5.4305 80.339 5.60774 80.9215 5.7259C82.1849 5.91106 83.4494 6.0431 84.7225 5.75001C85.1144 5.65166 85.6904 6.08864 86.0888 5.67146C86.7611 6.16357 87.9325 6.08107 88.5204 5.93353C89.5001 5.68765 90.1714 6.23289 91.0526 6.03817C91.2486 5.98899 91.4424 6.04609 91.542 5.94179C91.9371 5.68402 92.3258 5.74509 92.9071 5.91639C93.4885 6.08769 94.3644 6.15865 94.9511 6.06426C95.7339 5.92069 96.6129 5.83223 97.1965 5.89726C98.0712 6.02136 98.854 5.87779 99.7309 5.89562C106.261 5.92205 112.687 6.31847 119.223 6.02606C124.102 5.80627 128.965 6.33041 133.942 6.05945C138.431 5.77859 143.001 6.34993 147.589 6.01791C151.201 5.77237 154.895 6.27275 158.508 5.92092C160.169 5.74204 162.015 6.04536 163.771 5.97474C165.429 5.95527 166.984 6.14638 168.647 5.86122C170.213 5.57408 172.156 5.87938 173.911 5.86189C174.203 5.86784 174.497 5.82064 174.692 5.77146C174.307 5.55099 174.015 5.54505 173.722 5.53911C170.603 5.52886 167.487 5.41234 164.363 5.61465C160.557 5.85624 156.765 5.35388 152.86 5.64663C149.248 5.94531 145.558 5.23238 141.941 5.74362C141.452 5.83999 140.978 5.19242 140.48 5.71391C139.905 5.22377 139.407 5.74526 138.822 5.73338C134.436 5.69738 130.057 5.34256 125.76 5.73366C125.175 5.77491 124.297 5.81022 124.008 5.64486C123.236 5.25705 122.834 5.83366 122.252 5.7155C121.669 5.59733 120.985 5.68975 120.4 5.67786C116.893 5.60656 113.287 5.53327 109.78 5.46197C108.903 5.44414 107.835 5.2098 107.046 5.6722C106.948 5.72336 106.464 5.55404 106.172 5.49496C105.784 5.4339 105.104 5.31376 105.005 5.36492C104.511 5.72698 104.225 5.40221 103.836 5.34115C103.447 5.28009 102.954 5.58901 102.467 5.57911C101.687 5.56327 100.903 5.75997 100.231 5.26786C99.7374 5.57679 98.959 5.50781 98.3744 5.49592C97.6923 5.48206 96.9107 5.57249 96.431 5.19062C95.9352 5.60582 95.159 5.43056 94.4769 5.41669C90.0923 5.32756 85.6113 5.18331 81.2257 5.14732C76.84 5.11133 72.4629 4.65023 68.1639 5.1476C67.6821 4.87201 66.8994 5.01558 66.3158 4.95055C65.5374 4.88157 64.7536 5.07828 63.9741 5.06243C63.0972 5.04461 62.0222 5.18224 61.2513 4.74128C60.3636 5.25484 59.1998 4.96538 58.2254 4.94557C46.5331 4.70789 34.8408 4.47021 23.1485 4.23253C22.172 4.319 21.2951 4.30117 11.1585 4.2546Z" fill="black"/>
</svg>
